# File created by Blade
# Date/Time:  Thu Sep 25 17:33:50 2014
# Frame Rate: 120.000 fps
#------------------------------------------------------
:FULLY-SPECIFIED
:DEGREES
2243
root -5.067618 32.697839 -2.661117 17.416586 17.780593 24.062041
Spine -3.176166 -9.577785 -11.701454
Head -15.786950 31.084681 -9.757152
LeftShoulder 6.501845 2.897238 16.623629
LeftArm 74.674615 28.548797 -42.677752
LeftForeArm 36.625999 -0.000000 104.544088
LeftHand -28.002880 -0.000000 31.052494
LeftHandThumb1 -26.253704 0.000000 33.147579
RightShoulder -14.413018 13.741455 -27.128229
RightArm 12.510305 -23.043895 54.432267
RightForeArm -22.332879 -0.000000 128.791121
RightHand 1.625465 -0.000000 -28.266270
RightHandThumb1 -24.326973 -0.000000 -32.862282
LeftUpLeg -78.466248 27.900452 -5.044917
LeftLeg 106.913093 -0.000000 -0.000000
LeftFoot 13.171316 11.659568 -19.109910
LeftToeBase 4.286047 -0.000000 -0.000000
RightUpLeg -25.478435 -3.791289 -15.829044
RightLeg 36.851879 -0.000000 -0.000000
RightFoot -15.835333 -30.892152 -10.565537
RightToeBase 0.510896 -0.000000 -0.000000
2244
root -5.091123 32.704208 -2.658806 17.362374 17.894641 24.079539
Spine -3.117919 -9.563094 -11.715820
Head -15.556699 31.198541 -9.718832
LeftShoulder 6.457905 2.803589 16.571398
LeftArm 74.641759 28.598607 -42.664190
LeftForeArm 36.459497 -0.000000 104.549197
LeftHand -27.813135 -0.000000 30.927210
LeftHandThumb1 -26.253704 0.000000 33.147579
RightShoulder -14.454334 13.762497 -27.136144
RightArm 12.439617 -22.957994 54.540677
RightForeArm -22.152043 0.000000 128.804196
RightHand 1.800690 -0.000000 -27.943737
RightHandThumb1 -24.326973 -0.000000 -32.862282
LeftUpLeg -77.902192 27.705439 -5.226012
LeftLeg 106.637611 -0.000000 -0.000000
LeftFoot 13.569825 11.746037 -19.765096
LeftToeBase 4.198822 -0.000000 -0.000000
RightUpLeg -25.331792 -3.985834 -15.789600
RightLeg 36.745303 -0.000000 -0.000000
RightFoot -15.930636 -30.640100 -10.419437
RightToeBase 0.406897 -0.000000 -0.000000
2245
root -5.109546 32.712581 -2.654742 17.272070 17.998915 24.124788
Spine -3.015431 -9.508971 -11.778928
Head -15.284006 31.305017 -9.620895
LeftShoulder 6.438686 2.861576 16.580234
LeftArm 74.743807 28.605449 -42.657440
LeftForeArm 36.314512 -0.000000 104.529985
LeftHand -27.650278 -0.000000 30.855292
LeftHandThumb1 -26.253704 0.000000 33.147579
RightShoulder -14.502409 13.743465 -27.100127
RightArm 12.415317 -22.937634 54.640070
RightForeArm -22.206102 -0.000000 128.830739
RightHand 1.631758 -0.000000 -27.922374
RightHandThumb1 -24.326973 -0.000000 -32.862282
LeftUpLeg -77.210626 27.479813 -5.454615
LeftLeg 106.231516 -0.000000 -0.000000
LeftFoot 14.271285 11.757093 -20.381514
LeftToeBase 3.920164 -0.000000 -0.000000
RightUpLeg -25.131236 -4.158041 -15.806872
RightLeg 36.649577 -0.000000 -0.000000
RightFoot -16.212229 -30.249830 -10.139084
RightToeBase 0.589581 -0.000000 -0.000000
2246
root -5.128394 32.723523 -2.655600 17.230660 18.126537 24.182320
Spine -2.952555 -9.472957 -11.824304
Head -15.046066 31.360914 -9.553898
LeftShoulder 6.442299 2.889551 16.532989
LeftArm 74.790017 28.616567 -42.632901
LeftForeArm 36.179723 0.000000 104.579740
LeftHand -27.513040 -0.000000 30.366225
LeftHandThumb1 -26.253704 0.000000 33.147579
RightShoulder -14.567864 13.761747 -27.090795
RightArm 12.339017 -22.920707 54.839186
RightForeArm -22.207818 -0.000000 128.846541
RightHand 1.598258 -0.000000 -27.917596
RightHandThumb1 -24.326973 -0.000000 -32.862282
LeftUpLeg -76.469323 27.173754 -5.728831
LeftLeg 105.689605 -0.000000 -0.000000
LeftFoot 14.933424 11.595079 -20.977080
LeftToeBase 3.797448 -0.000000 -0.000000
RightUpLeg -24.991781 -4.456068 -15.789302
RightLeg 36.531933 -0.000000 -0.000000
RightFoot -16.331616 -29.979564 -9.892940
RightToeBase 0.553090 -0.000000 -0.000000
2247
root -5.145861 32.733993 -2.654788 17.192287 18.233797 24.230874
Spine -2.900044 -9.409945 -11.856684
Head -14.838729 31.398906 -9.498258
LeftShoulder 6.401892 2.861116 16.474291
LeftArm 74.905909 28.743153 -42.525643
LeftForeArm 36.134670 -0.000000 104.565239
LeftHand -27.558228 -0.000000 30.583528
LeftHandThumb1 -26.253704 0.000000 33.147579
RightShoulder -14.660128 13.752601 -27.054868
RightArm 12.348293 -22.990310 54.923944
RightForeArm -22.385262 -0.000000 128.873440
RightHand 1.363460 0.000000 -28.126375
RightHandThumb1 -24.326973 -0.000000 -32.862282
LeftUpLeg -75.671321 26.859801 -6.022662
LeftLeg 105.057591 -0.000000 -0.000000
LeftFoot 15.661074 11.271048 -21.409965
LeftToeBase 3.815144 -0.000000 -0.000000
RightUpLeg -24.854816 -4.702713 -15.793720
RightLeg 36.432721 -0.000000 -0.000000
RightFoot -16.439133 -29.654941 -9.714087
RightToeBase 0.417112 -0.000000 -0.000000
2248
root -5.162206 32.743655 -2.654274 17.140230 18.349087 24.228561
Spine -2.871572 -9.212430 -11.825839
Head -14.560722 31.283771 -9.378434
LeftShoulder 6.529750 2.851870 16.438140
LeftArm 74.969752 28.814081 -42.457747
LeftForeArm 36.110814 -0.000000 104.579832
LeftHand -27.656827 -0.000000 30.480514
LeftHandThumb1 -26.253704 0.000000 33.147579
RightShoulder -14.811280 13.659016 -27.010038
RightArm 12.335500 -22.999917 54.985181
RightForeArm -22.516424 -0.000000 128.892395
RightHand 1.290389 -0.000000 -28.345287
RightHandThumb1 -24.326973 -0.000000 -32.862282
LeftUpLeg -74.842242 26.534088 -6.313060
LeftLeg 104.339303 -0.000000 -0.000000
LeftFoot 16.418763 10.826698 -21.644425
LeftToeBase 3.522404 -0.000000 -0.000000
RightUpLeg -24.707460 -4.890281 -15.753872
RightLeg 36.310132 -0.000000 -0.000000
RightFoot -16.482033 -29.417487 -9.681707
RightToeBase 0.410182 -0.000000 -0.000000
2249
root -5.180718 32.754491 -2.656288 17.132658 18.446879 24.236619
Spine -2.888283 -9.153617 -11.767533
Head -14.362716 31.302799 -9.366619
LeftShoulder 6.510838 2.828897 16.347780
LeftArm 74.972900 28.937544 -42.425563
LeftForeArm 36.051184 -0.000000 104.614533
LeftHand -27.694592 0.000000 30.504474
LeftHandThumb1 -26.253704 0.000000 33.147579
RightShoulder -14.854348 13.639153 -26.987421
RightArm 12.317329 -23.061967 55.118619
RightForeArm -22.625776 -0.000000 128.925315
RightHand 1.202450 -0.000000 -28.454346
RightHandThumb1 -24.326973 -0.000000 -32.862282
LeftUpLeg -73.997230 26.169663 -6.649601
LeftLeg 103.495148 -0.000000 -0.000000
LeftFoot 17.095640 10.281080 -21.785430
LeftToeBase 3.788099 -0.000000 -0.000000
RightUpLeg -24.599406 -5.051916 -15.715872
RightLeg 36.155146 -0.000000 -0.000000
RightFoot -16.446931 -29.260689 -9.751168
RightToeBase 0.370183 -0.000000 -0.000000
2250
root -5.199883 32.763460 -2.658827 17.151383 18.510469 24.224680
Spine -2.935441 -9.260101 -11.671717
Head -14.325097 31.459479 -9.475661
LeftShoulder 6.223797 2.886362 16.251361
LeftArm 75.068301 29.070323 -42.319495
LeftForeArm 36.001121 -0.000000 104.645132
LeftHand -27.686235 0.000000 30.577187
LeftHandThumb1 -26.253704 0.000000 33.147579
RightShoulder -14.761775 13.705559 -26.934367
RightArm 12.332167 -23.114951 55.269789
RightForeArm -22.660560 0.000000 128.946579
RightHand 1.267685 -0.000000 -28.527700
RightHandThumb1 -24.326973 -0.000000 -32.862282
LeftUpLeg -73.166548 25.826395 -7.028546
LeftLeg 102.567431 -0.000000 -0.000000
LeftFoot 17.806346 9.652628 -21.677704
LeftToeBase 3.260555 -0.000000 -0.000000
RightUpLeg -24.538625 -5.104040 -15.664268
RightLeg 35.998235 -0.000000 -0.000000
RightFoot -16.399090 -29.214131 -9.798524
RightToeBase 0.459629 -0.000000 -0.000000
2251
root -5.220008 32.771626 -2.662757 17.153917 18.591061 24.145175
Spine -3.014338 -9.224942 -11.498417
Head -14.154636 31.518205 -9.482983
LeftShoulder 6.157240 3.012037 16.210253
LeftArm 75.157008 29.152377 -42.253243
LeftForeArm 36.127337 -0.000000 104.676384
LeftHand -27.702294 -0.000000 30.733209
LeftHandThumb1 -26.253704 0.000000 33.147579
RightShoulder -14.709022 13.705090 -26.877893
RightArm 12.246440 -23.028943 55.403230
RightForeArm -22.486181 -0.000000 129.000289
RightHand 1.481539 -0.000000 -28.189106
RightHandThumb1 -24.326973 -0.000000 -32.862282
LeftUpLeg -72.326676 25.459460 -7.361515
LeftLeg 101.573354 -0.000000 -0.000000
LeftFoot 18.397512 9.099254 -21.610532
LeftToeBase 3.129433 -0.000000 -0.000000
RightUpLeg -24.466487 -5.141760 -15.539529
RightLeg 35.797865 -0.000000 -0.000000
RightFoot -16.284284 -29.196683 -9.957056
RightToeBase 0.590187 -0.000000 -0.000000
2252
root -5.240390 32.777856 -2.669431 17.182689 18.668865 24.044644
Spine -3.138325 -9.059831 -11.311625
Head -13.927103 31.503102 -9.404838
LeftShoulder 6.257549 3.088228 16.176399
LeftArm 75.188957 29.209294 -42.188352
LeftForeArm 36.229926 -0.000000 104.709314
LeftHand -27.646832 0.000000 30.604865
LeftHandThumb1 -26.253704 0.000000 33.147579
RightShoulder -14.774617 13.656867 -26.833327
RightArm 12.154382 -23.013889 55.545340
RightForeArm -22.462175 0.000000 129.019736
RightHand 1.613514 -0.000000 -28.060262
RightHandThumb1 -24.326973 -0.000000 -32.862282
LeftUpLeg -71.517757 25.080722 -7.727847
LeftLeg 100.516365 -0.000000 -0.000000
LeftFoot 18.878838 8.582835 -21.561395
LeftToeBase 2.740985 -0.000000 -0.000000
RightUpLeg -24.422853 -5.095689 -15.409732
RightLeg 35.579863 -0.000000 -0.000000
RightFoot -16.121279 -29.293759 -10.194076
RightToeBase 0.521171 -0.000000 -0.000000
2253
root -5.261740 32.782208 -2.674460 17.179843 18.757596 23.891712
Spine -3.264301 -8.881962 -11.060466
Head -13.635566 31.541982 -9.288273
LeftShoulder 6.388275 3.176842 16.145450
LeftArm 75.208444 29.253842 -42.169645
LeftForeArm 36.204582 -0.000000 104.700453
LeftHand -27.575403 -0.000000 30.648142
LeftHandThumb1 -26.253704 0.000000 33.147579
RightShoulder -14.814913 13.568214 -26.757497
RightArm 12.151470 -23.019458 55.500872
RightForeArm -22.480844 0.000000 129.036775
RightHand 1.621139 -0.000000 -28.077756
RightHandThumb1 -24.326973 -0.000000 -32.862282
LeftUpLeg -70.679450 24.708136 -8.042232
LeftLeg 99.408279 -0.000000 -0.000000
LeftFoot 19.155704 8.295546 -21.956248
LeftToeBase 2.706683 -0.000000 -0.000000
RightUpLeg -24.355468 -5.019205 -15.229320
RightLeg 35.360353 -0.000000 -0.000000
RightFoot -16.031861 -29.365347 -10.315749
RightToeBase 0.602094 -0.000000 -0.000000
2254
root -5.283802 32.785036 -2.680510 17.200012 18.844773 23.743362
Spine -3.394936 -8.805046 -10.808759
Head -13.455516 31.679283 -9.197815
LeftShoulder 6.384764 3.258475 16.167771
LeftArm 75.286731 29.379564 -42.183061
LeftForeArm 36.152390 -0.000000 104.667590
LeftHand -27.758011 -0.000000 30.917458
LeftHandThumb1 -26.253704 0.000000 33.147579
RightShoulder -14.821037 13.536794 -26.708518
RightArm 12.142537 -22.983488 55.642860
RightForeArm -22.592315 0.000000 129.026617
RightHand 1.647738 -0.000000 -28.034903
RightHandThumb1 -24.326973 -0.000000 -32.862282
LeftUpLeg -69.853804 24.314730 -8.364832
LeftLeg 98.261535 -0.000000 -0.000000
LeftFoot 19.380139 8.119371 -22.275161
LeftToeBase 2.771474 -0.000000 -0.000000
RightUpLeg -24.316106 -4.892831 -15.061077
RightLeg 35.157582 -0.000000 -0.000000
RightFoot -15.959412 -29.455265 -10.375330
RightToeBase 0.684939 -0.000000 -0.000000
2255
root -5.306133 32.786809 -2.685220 17.228896 18.942483 23.588140
Spine -3.529159 -8.776357 -10.526188
Head -13.348787 31.853283 -9.184287
LeftShoulder 6.345999 3.279352 16.095722
LeftArm 75.240764 29.444319 -42.137905
LeftForeArm 35.926972 -0.000000 104.688979
LeftHand -27.491147 0.000000 30.665428
LeftHandThumb1 -26.253704 0.000000 33.147579
RightShoulder -14.847298 13.522531 -26.672955
RightArm 12.189885 -23.029126 55.662770
RightForeArm -22.668395 -0.000000 129.008194
RightHand 1.682739 -0.000000 -28.034022
RightHandThumb1 -24.326973 -0.000000 -32.862282
LeftUpLeg -69.033295 23.929806 -8.692455
LeftLeg 97.109117 -0.000000 -0.000000
LeftFoot 19.374770 8.095430 -22.856267
LeftToeBase 2.883088 -0.000000 -0.000000
RightUpLeg -24.288748 -4.788015 -14.883530
RightLeg 34.969411 -0.000000 -0.000000
RightFoot -15.920970 -29.521087 -10.367313
RightToeBase 0.714342 -0.000000 -0.000000
